<svg version="1" xmlns="http://www.w3.org/2000/svg" width="341.333" height="341.333" viewBox="0 0 256.000000 256.000000"><path d="M64 64.5L.5 128l9.5 9.5 9.5 9.5h9.7c7.9 0 9.8.3 9.8 1.5 0 1.1-1.8 1.5-8 1.7l-8 .3 52.7 52.8 52.8 52.7 53-53 53-53h-8.8c-7.1 0-8.7-.3-8.7-1.5s1.8-1.5 10.3-1.5h10.2l9.3-9.3 9.2-9.2-63.8-63.8C157.2 29.7 128.3 1 128 1c-.3 0-29.1 28.6-64 63.5zm7.2 44.4c2.1.8 2.4 1.4 2 4.5-.2 2-.8 3.6-1.2 3.6-.4 0-2.4-1.6-4.3-3.5-5.6-5.6-11.7-4.1-11.7 3 0 4.1 1.3 5.5 9.1 9.7 6.9 3.6 9.3 6.6 9.2 11.3-.3 9.2-11.8 14.1-24.3 10.4-3.7-1.1-3.8-1.3-3.3-4.8.3-2 .8-3.8 1-4 .2-.3 1.8.9 3.6 2.7 6.8 6.6 13.9 6.2 14.5-.9.3-4-.9-5.3-10-10.9-5.8-3.5-8.3-7.2-8.3-12.1 0-4.4 3.2-8.4 7.9-9.9 3.4-1 12.1-.5 15.8.9zm79 .3c2.4 1.2 3.3 5.5 1.8 8.4-.7 1.3-2.8 3.4-4.7 4.6-1.8 1.3-3.3 2.8-3.3 3.4 0 1.5 5.8 9.4 6.9 9.4 1 0 5.1-9.2 5.1-11.4 0-1.1.9-1.6 3-1.6 1.7 0 3 .3 3 .7 0 .3-2.1 4.2-4.6 8.6l-4.6 8 1.9 2.5c3.1 4.2 4.9 4.9 7.2 2.7 3-2.6 3.9-1 1.1 2-3.1 3.3-7.9 3.3-10.9.1l-2.3-2.5-3.9 2.6c-3.3 2.2-4.7 2.5-9.9 2.1-4.5-.3-6.6-1-8.5-2.8-5.1-4.8-2.5-12.8 6-18l3.4-2.1-1.9-4.2c-2.5-5.4-2.5-6.8.1-10.1 3.2-4.1 9.8-5.2 15.1-2.4zm53.3-.8l5 1.2-.2 3.8c-.2 2.2-.4 4.1-.7 4.3-.2.2-1.9-1.2-3.8-3.1-8.9-8.9-20-3.4-21.5 10.6-.7 7.1 1.2 13.5 5.2 17.5 4.3 4.3 9.9 4.5 17 .8 4.9-2.7 7.5-2.5 4 .2-9 6.9-22.6 7.1-30.1.5-7.3-6.3-7.9-21.2-1.3-29.6 5.1-6.5 15.3-8.9 26.4-6.2zm-95.1.6c7 2.6 8.7 9.1 3.7 14.1l-3 2.9 2.9 1.5c8.7 4.5 9.2 13.7 1.1 18.8-3.1 1.9-5.3 2.2-15.6 2.5l-12 .4V108h10.2c5.6 0 11.3.4 12.7 1z"/><path d="M140.2 111.2c-1.5 1.5-1.5 5 0 8.3 1.4 3.1 1.9 3.1 4.5.2 3.1-3.4 3.4-4.3 2.3-7.1-1-2.8-4.6-3.6-6.8-1.4zM134.6 131.1c-5.3 6.2-2.6 15.9 4.4 15.9 3.6 0 8.5-4.3 7.6-6.5-.6-1.5-8.6-12.5-9.1-12.5-.2 0-1.5 1.4-2.9 3.1zM94.7 111.7c-.4.3-.7 3.5-.7 7v6.3h4.4c5.4 0 7.6-1.9 7.6-6.6 0-5.7-1.4-7.4-6.4-7.4-2.3 0-4.6.3-4.9.7zM94 135.7c0 4.8.5 8.4 1.2 9.1 1.7 1.7 8.9 1.5 11.6-.4 1.8-1.2 2.2-2.5 2.2-6.3 0-7-2.2-9.3-9.3-9.9l-5.7-.4v7.9z"/></svg>